<?xml version="1.0" encoding="utf-8"?>
<!-- Generator: Adobe Illustrator 21.0.0, SVG Export Plug-In . SVG Version: 6.00 Build 0)  -->
<svg version="1.1" id="图层_1" xmlns="http://www.w3.org/2000/svg" xmlns:xlink="http://www.w3.org/1999/xlink" x="0px" y="0px"
	 viewBox="0 0 1024 1024" style="enable-background:new 0 0 1024 1024;" xml:space="preserve">
<style type="text/css">
	.st0{fill:#9A9A9A;}
</style>
<path class="st0" d="M478.4,478.4H143.6C64.5,478.4,0,415.5,0,337.7V143.4c0-37.9,15.1-73.9,42.5-101.1C69.8,15.1,105.7,0,143.6,0
	h194.3c77.7,0,140.5,64.4,140.5,143.4L478.4,478.4L478.4,478.4z M143.6,72C104.6,72,72,104.5,72,143.4v194.3c0,38.4,31.9,70,71.6,70
	h264V143.4c0-39.6-31.5-71.4-69.7-71.4H143.6L143.6,72z M882.8,478.4H545.6V143.4c0-37.9,14.9-73.8,42.1-101.1
	C614.9,15.1,650.7,0,688.6,0h194.3C960.7,0,1024,64.4,1024,143.4v194.3c0,37.9-14.6,73.2-41.2,99.8
	C956.2,464,920.7,478.4,882.8,478.4z M617.6,407.6h265.3c39.1,0,69.1-30.9,69.1-70V143.4c0-39.6-30.7-71.4-69.1-71.4H688.6
	c-38.9,0-71,32.4-71,71.4V407.6z M337.9,1024H143.6C64.5,1024,0,960.6,0,882.6V688.3c0-37.9,15.1-73.7,42.5-100.9
	c27.3-27.1,63.2-41.9,101.1-41.9h334.8v337c0,37.9-14.4,73.4-40.8,100C411.2,1009.3,375.8,1024,337.9,1024L337.9,1024z M143.6,617.6
	c-39.1,0-71.6,32-71.6,70.7v194.3c0,38.6,31.9,69.4,71.6,69.4h194.3c38.9,0,69.7-30.2,69.7-69.4v-265H143.6z M882.8,1024H688.6
	c-78.9,0-143-63.4-143-141.4v-337h337.3c77.8,0,141.2,64,141.2,142.7v194.3c0,37.9-14.6,73.4-41.1,100
	C956.3,1009.3,920.8,1024,882.8,1024z M617.6,617.6v265c0,38.6,31.4,69.4,71,69.4h194.3c39.1,0,69.1-30.2,69.1-69.4V688.3
	c0-39.4-30.7-70.7-69.1-70.7H617.6z"/>
</svg>
