<?xml version="1.0" encoding="utf-8"?>
<!-- Generator: Adobe Illustrator 21.0.0, SVG Export Plug-In . SVG Version: 6.00 Build 0)  -->
<svg version="1.1" id="图层_1" xmlns="http://www.w3.org/2000/svg" xmlns:xlink="http://www.w3.org/1999/xlink" x="0px" y="0px"
	 viewBox="0 0 1024 1024" style="enable-background:new 0 0 1024 1024;" xml:space="preserve">
<style type="text/css">
	.st0{fill:#888888;}
</style>
<path id="形状_20" class="st0" d="M993.5,896.9H833.3V383.7c0-35.4-28.7-64.1-64.1-64.1H641V191.3c0-35.4-28.7-64.1-64.1-64.1
	H448.7c-35.4,0-64.1,28.7-64.1,64.1v384.9H256.4c-35.4,0-64.1,28.7-64.1,64.1v256.6H64.1V95.1c0-17.7-14.3-32.1-32-32.1
	S0,77.4,0,95.1l0,0v801.8C0,932.3,28.7,961,64.1,961h929.5c17.7-0.9,31.3-16,30.4-33.7C1023.1,910.8,1010,897.7,993.5,896.9
	L993.5,896.9L993.5,896.9z M256.4,896.9V640.3h128.2v256.6H256.4z M448.7,896.9V191.3h128.2v705.6L448.7,896.9L448.7,896.9z
	 M641,896.9V383.7h128.2v513.1H641V896.9z"/>
</svg>
