<?xml version="1.0" encoding="utf-8"?>
<!-- Generator: Adobe Illustrator 21.0.0, SVG Export Plug-In . SVG Version: 6.00 Build 0)  -->
<svg version="1.1" id="图层_1" xmlns="http://www.w3.org/2000/svg" xmlns:xlink="http://www.w3.org/1999/xlink" x="0px" y="0px"
	 viewBox="0 0 1024 1024" style="enable-background:new 0 0 1024 1024;" xml:space="preserve">
<style type="text/css">
	.st0{fill:#888888;}
</style>
<path id="形状_24" class="st0" d="M849.1,678.5H676.4c-19.5,0.7-34.7,17-34,36.4c0.6,18.5,15.5,33.4,34,34H849
	c19.5-0.7,34.7-17,34-36.4C882.4,694,867.6,679.2,849.1,678.5z M849.1,274.8H676.4c-19.5,0.7-34.7,17-34,36.4
	c0.6,18.5,15.5,33.4,34,34H849c19.5-0.7,34.7-17,34-36.4C882.4,290.3,867.6,275.4,849.1,274.8z M444.8,524.1
	c34.6-28.7,54.4-71.5,53.9-116.5c0.5-84.1-66.8-153-151-154.5c-83.8,0.4-151.4,68.7-151,152.5c0,0.7,0,1.3,0,2
	c0.8,44.7,20.3,87,53.9,116.5c-82.4,39.5-134.8,122.7-134.8,214.1c0,19.4,15.7,35,35.1,35s35.1-15.7,35.1-35
	c-0.3-88.5,70.5-160.9,159-162.6c88.6,0.7,159.8,73.2,159,161.7c0,0.3,0,0.6,0,0.9c0,19.4,15.7,35,35.1,35s35.1-15.7,35.1-35
	C579.4,646.9,528,561.9,444.8,524.1L444.8,524.1L444.8,524.1z M347.7,486.2c-43.7-0.5-78.7-36.3-78.2-80c0-0.4,0-0.9,0-1.3
	c-0.2-43.7,34.5-79.6,78.2-81.1c43.7,0.5,78.7,36.3,78.2,79.9c0,0.4,0,0.8,0,1.1c2.2,42.7-30.7,79.2-73.4,81.4
	c-1.6,0.1-3.3,0.1-4.9,0.1L347.7,486.2z M849.1,478H676.4c-19.5,0.7-34.7,17-34,36.4c0.6,18.5,15.5,33.4,34,34H849
	c19.5-0.7,34.7-17,34-36.4C882.5,493.5,867.6,478.6,849.1,478L849.1,478z M927.3,106.8H96.9C43.4,106.8,0,150.2,0,203.7
	c0,0.2,0,0.4,0,0.6v615.1c-0.5,53.5,42.5,97.3,96.1,97.8c0.3,0,0.5,0,0.8,0h830.2c53.5,0,96.9-43.4,96.9-97c0-0.3,0-0.5,0-0.8v-615
	c0.4-53.5-42.7-97.2-96.2-97.6c-0.3,0-0.5,0-0.8,0l0,0L927.3,106.8z M956.9,819.3c-0.2,17.8-14.5,32.2-32.3,32.5H96.9
	c-17.8-0.3-32.2-14.7-32.3-32.5v-615c0.2-17.8,14.5-32.2,32.3-32.5h830.2c17.8,0.3,32.2,14.7,32.3,32.5v615.1h-2.7L956.9,819.3z"/>
</svg>
