<?xml version="1.0" encoding="utf-8"?>
<!-- Generator: Adobe Illustrator 21.0.0, SVG Export Plug-In . SVG Version: 6.00 Build 0)  -->
<svg version="1.1" id="图层_1" xmlns="http://www.w3.org/2000/svg" xmlns:xlink="http://www.w3.org/1999/xlink" x="0px" y="0px"
	 viewBox="0 0 1024 1024" style="enable-background:new 0 0 1024 1024;" xml:space="preserve">
<style type="text/css">
	.st0{fill:#ABABAB;}
</style>
<path id="形状_19" class="st0" d="M63,907.9h902c28.9-3.3,55.1,17.1,58.9,45.8c-1.4,27.2-24.6,48.2-51.8,46.8
	c-2.5-0.1-5-0.4-7.4-0.9h-902c-25.3,6.4-51-9-57.4-34.3c-6.4-25.3,9-51,34.3-57.4C47.3,905.9,55.4,905.9,63,907.9z M41.4,616.7
	h591.7c23.2,1.6,40.7,21.7,39.1,44.9c0,0.3,0,0.6-0.1,1c3.6,21.4-10.8,41.7-32.2,45.3c-2.2,0.4-4.5,0.6-6.8,0.5H41.3
	C16,704.1-1.1,680.1,3.2,654.8C6.5,635.2,21.8,619.9,41.4,616.7z M38.9,333.9h591.7c23.1,1.5,40.6,21.5,39.1,44.7
	c0,0.4-0.1,0.8-0.1,1.2c3.6,21.4-10.9,41.7-32.3,45.3c-2.2,0.4-4.4,0.5-6.7,0.5H38.8c-25.3-4.2-42.4-28.2-38.2-53.5
	C3.9,352.5,19.2,337.2,38.9,333.9L38.9,333.9L38.9,333.9z M59.3,24.5H961c28.9-3.5,55.3,16.9,59.2,45.8
	c-1.4,27.2-24.6,48.2-51.8,46.8c-2.5-0.1-5-0.4-7.4-0.9H59.3c-25.3,6.6-51.1-8.7-57.7-34c-6.6-25.3,8.7-51.1,34-57.7
	C43.3,22.5,51.5,22.5,59.3,24.5L59.3,24.5L59.3,24.5z M856.2,714.1c0,0-61.5,60.2-61.5-25.7V348c-2.6-14.3,0.3-29,7.9-41.3
	c14.4,1.4,27.9,7.4,38.6,17.1l155.4,132.7c33.2,30.8,35.1,82.7,4.3,115.9c-1.4,1.5-2.8,2.9-4.3,4.3L856.2,714.1L856.2,714.1
	L856.2,714.1z"/>
</svg>
