<?xml version="1.0" encoding="utf-8"?>
<!-- Generator: Adobe Illustrator 21.0.0, SVG Export Plug-In . SVG Version: 6.00 Build 0)  -->
<svg version="1.1" id="图层_1" xmlns="http://www.w3.org/2000/svg" xmlns:xlink="http://www.w3.org/1999/xlink" x="0px" y="0px"
	 viewBox="0 0 1024 1024" style="enable-background:new 0 0 1024 1024;" xml:space="preserve">
<style type="text/css">
	.st0{fill:#9A9A9A;}
</style>
<path class="st0" d="M734.1,474.3c-151.4,0-274.8,123.3-274.8,274.8c0,151.5,123.4,274.8,274.8,274.8
	c151.6,0,274.9-123.3,274.9-274.8C1009,597.6,885.7,474.3,734.1,474.3z M734.1,972.1c-122.9,0-222.9-100-222.9-223
	c0-122.9,100-223,222.9-223c123,0,223,100,223,223C957.1,872.1,857,972.1,734.1,972.1L734.1,972.1z M346.9,659.6H227.3
	c-19.5,0-35.3,14.2-35.3,31.7c0,17.4,15.8,31.6,35.3,31.6h119.6c19.5,0,35.3-14.2,35.3-31.6C382.3,673.9,366.4,659.6,346.9,659.6z
	 M586.6,237.1c-19.5,0-35.3,14.2-35.3,31.7c0,17.4,15.8,31.7,35.3,31.7h119.6c19.5,0,35.4-14.2,35.4-31.7
	c0-17.5-15.9-31.7-35.4-31.7H586.6z M381.1,382.5c27.7,0.2,55.2,0,82.9-0.8c15.2-0.5,24.4-11.7,23.8-27.4
	c-0.7-19.7-16-34.9-34.9-34.9c-24.4,0-48.8,0.1-73.3,0c-2.5,0-7,1.2-6.8-2.3c0.1-8.8-3.3-17.9,4.4-26c26.6-27.9,52.5-56.3,78.7-84.6
	c3.4-3.7,6.8-7.5,9.5-11.9c9.9-15.5,2.8-34-14.8-38.3c-12.4-3.1-22.3,2.3-30.9,10.8c-24.4,23.8-48.8,47.7-73,72
	c-4.1,4.2-5.9,3.7-9.6-0.5c-20.4-22.9-41.3-45.5-61.8-68.3c-7.8-8.6-16.9-14.8-28.3-17.1c-12.4-2.5-22.6,3.7-26.3,16.3
	c-4.5,15.1,2.2,26.9,11.5,37.5c22.2,25.4,44.2,51.2,67.2,75.9c8.4,9.1,12.1,18.3,11,30.6c-0.5,5.4-1.6,6.9-6.8,6.9
	c-25.9-0.3-51.8,0.1-77.7-0.3c-8.3-0.1-14,3.1-18.9,9.5c-3.7,4.9-6.2,10.5-8.1,16.3c-6.9,22,3.5,41.4,25.9,41.4
	c27.1,0,52.2-4.3,78.4-4.6c4.1-0.1,7.1,0,7,5.9c-0.3,18.9-0.3,38-0.2,56.9c0,4.4-1.5,5.7-5.6,5.7c-14.4-0.3-28.6-0.2-42.9-0.2H221
	c-16.6,0.2-29.2,12.8-29,29.2c0.1,17.5,12.7,30.6,29.4,30.6c27.1,0,54.3,0,81.4-0.1c4.7,0,6.5,1.2,6.4,6.5c-0.2,9.5,0,19.1,0.7,28.5
	c1.5,18.9,13.9,29.9,32.4,29.4c16.6-0.5,29.3-14,29.6-32c0.1-8,0.4-16-0.5-23.9c-0.7-7.2,1.5-8.8,8-8.6c26.9,0.3,53.7,0,80.6,0.2
	c8.9,0,15.8-3.2,21-10.6c7.3-10.3,8.9-21.5,4-33.4c-4.9-11.5-14.5-15.4-25.8-16c-2.9-0.2-5.9-0.2-8.9-0.2c-24,0-47.8-0.2-71.8,0.2
	c-5.2,0-6.7-1.7-6.5-7.1c0.3-17.4,0.6-34.9,0.2-52.3C372.2,384.2,374.5,382.5,381.1,382.5L381.1,382.5z M614.8,328.6
	c0,19.5,14.3,35.3,31.7,35.3c17.4,0,31.7-15.8,31.7-35.3V209.1c0-19.5-14.2-35.4-31.7-35.4c-17.5,0-31.7,15.9-31.7,35.4V328.6z
	 M258.5,748.3c0,19.5,14.3,35.3,31.7,35.3c17.4,0,31.7-15.8,31.7-35.3V628.8c0-19.5-14.2-35.4-31.7-35.4
	c-17.5,0-31.7,15.9-31.7,35.4V748.3z"/>
<path class="st0" d="M487.9,929.4h-346c-41.3,0-75-33.6-75-74.9V126.8c0-41.3,33.6-74.9,75-74.9h649.8c41.3,0,75,33.6,75,74.9v352.5
	c0,14.3,11.6,25.9,26,25.9c14.3,0,26-11.6,26-25.9V126.8C918.6,56.9,861.7,0,791.7,0H141.9C71.9,0,15,56.9,15,126.8v727.6
	c0,69.9,56.9,126.8,126.9,126.8h346c14.3,0,26-11.6,26-25.9C513.9,941,502.2,929.4,487.9,929.4L487.9,929.4z"/>
<g>
	<path class="st0" d="M760.5,853.9h-51.3V614.5h51.3L760.5,853.9L760.5,853.9z"/>
	<path class="st0" d="M735.6,888.1l-36.3-36.3l102.2-102.2l36.3,36.3L735.6,888.1z"/>
	<path class="st0" d="M771.8,851.8l-36.3,36.3L633.2,785.9l36.3-36.3L771.8,851.8z"/>
</g>
</svg>
