<?xml version="1.0" encoding="utf-8"?>
<!-- Generator: Adobe Illustrator 21.0.0, SVG Export Plug-In . SVG Version: 6.00 Build 0)  -->
<svg version="1.1" id="图层_1" xmlns="http://www.w3.org/2000/svg" xmlns:xlink="http://www.w3.org/1999/xlink" x="0px" y="0px"
	 viewBox="0 0 1024 1024" style="enable-background:new 0 0 1024 1024;" xml:space="preserve">
<style type="text/css">
	.st0{fill:#9A9A9A;}
</style>
<path class="st0" d="M702.3,351.4H578l86.4-117c7.3-9.8,8.5-22.6,3.2-33.5c-5.4-10.9-16.5-18.2-29.2-19.3
	c-12.7-1.1-25,4.3-32.4,14.2l-110,152.7L375.4,194.6c-12-14.7-34.4-17.5-50-6.1c-15.6,11.3-18.5,32.4-6.5,47.1l92,117H298.3
	c-19.7,0-35.7,15.1-35.7,33.6s16,33.6,35.7,33.6h160.3v70.2H317.6c-12.8,0-24.6,6.4-30.9,16.8c-6.4,10.4-6.4,23.2,0,33.6
	c6.4,10.4,18.2,16.8,30.9,16.8h141.1v175.6c0,18.6,16,33.6,35.7,33.6c19.7,0,35.7-15.1,35.7-33.6V557.4h153.5
	c19.7,0,35.7-15.1,35.7-33.6s-16-33.6-35.7-33.6H529.5v-71.4h172.8c19.7,0,35.7-15.1,35.7-33.6S722,351.4,702.3,351.4L702.3,351.4z"
	/>
<path class="st0" d="M133.7,940.3c-32,0-57.9-28.7-57.9-64V147.7c0-35.3,25.9-64,57.9-64h756.6c32,0,57.9,28.7,57.9,64v390.5
	c0,20.3,19.5,34.3,37.9,34.3s37.9-13.9,37.9-34.3V137.6C1024,61.6,968.2,0,899.4,0H124.6C55.8,0,0,61.6,0,137.6v748.8
	c0,76,55.8,137.6,124.6,137.6h507.6c18.4,0,31-21.5,31-41.9c0-20.3-12.6-41.9-31-41.9L133.7,940.3L133.7,940.3z"/>
<path class="st0" d="M916.6,855.4l-94.1,99.2c-12.5,13.2-12.8,34.9-0.6,48.4c12.2,13.5,32.3,13.8,44.8,0.6l147.3-155.4
	c6.3-6.4,9.9-15.4,9.9-24.8c0-9.4-3.6-18.4-9.9-24.8l-143.9-159c-12.2-13.5-32.3-13.8-44.8-0.6c-12.5,13.2-12.8,34.9-0.6,48.4
	l90.8,99.8H655.4c-17.6,0-31.8,15.4-31.8,34.4s14.3,34.4,31.8,34.4L916.6,855.4L916.6,855.4z"/>
</svg>
