<?xml version="1.0" encoding="utf-8"?>
<!-- Generator: Adobe Illustrator 21.0.0, SVG Export Plug-In . SVG Version: 6.00 Build 0)  -->
<svg version="1.1" id="图层_1" xmlns="http://www.w3.org/2000/svg" xmlns:xlink="http://www.w3.org/1999/xlink" x="0px" y="0px"
	 viewBox="0 0 1024 1024" style="enable-background:new 0 0 1024 1024;" xml:space="preserve">
<style type="text/css">
	.st0{fill:#9A9A9A;}
</style>
<path class="st0" d="M972.3,0H51.7C23.3,0,0,23.3,0,51.7v920.6c0,28.4,23.3,51.7,51.7,51.7h920.6c28.4,0,51.7-23.3,51.7-51.7V51.7
	C1024,23.3,1000.7,0,972.3,0z M951.6,951.6H72.4V72.4h879.2V951.6z M168.6,253.9c0,22.2,18.1,40.3,40.3,40.3
	c22.8,0,40.3-18.1,40.3-40.3c0-22.8-18.1-40.3-40.3-40.3S168.6,231.7,168.6,253.9z M807.8,291.7H320.6c-20.7,0-37.8-16.5-37.8-37.8
	s16.5-37.8,37.8-37.8h487.2c20.7,0,37.8,16.5,37.8,37.8S828.5,291.7,807.8,291.7L807.8,291.7z M168.6,509.9
	c0,22.2,18.1,40.3,40.3,40.3c22.8,0,40.3-18.1,40.3-40.3c0-22.8-18.1-40.3-40.3-40.3C186.7,469.1,168.6,487.2,168.6,509.9z
	 M807.8,547.2H320.6c-20.7,0-37.8-16.5-37.8-37.8c0-20.7,16.5-37.8,37.8-37.8h487.2c20.7,0,37.8,16.5,37.8,37.8
	C845.6,530.6,828.5,547.2,807.8,547.2L807.8,547.2z M168.6,765.4c0,22.2,18.1,40.3,40.3,40.3c22.8,0,40.3-18.1,40.3-40.3
	c0-22.8-18.1-40.3-40.3-40.3S168.6,742.7,168.6,765.4z M807.8,802.7H320.6c-20.7,0-37.8-16.5-37.8-37.8s16.5-37.8,37.8-37.8h487.2
	c20.7,0,37.8,16.5,37.8,37.8S828.5,802.7,807.8,802.7L807.8,802.7z"/>
</svg>
