<?xml version="1.0" encoding="utf-8"?>
<!-- Generator: Adobe Illustrator 21.0.0, SVG Export Plug-In . SVG Version: 6.00 Build 0)  -->
<svg version="1.1" id="图层_1" xmlns="http://www.w3.org/2000/svg" xmlns:xlink="http://www.w3.org/1999/xlink" x="0px" y="0px"
	 viewBox="0 0 1024 1024" style="enable-background:new 0 0 1024 1024;" xml:space="preserve">
<style type="text/css">
	.st0{fill:#999999;}
</style>
<path id="password" class="st0" d="M845.1,383.9v-90.7C845.1,131.3,697,0,514.2,0h-4.4C327,0,178.9,131.3,178.9,293.2v90.7H64v487.9
	c5.7,89.2,82.2,157,171.5,152h553c89.2,5.1,165.8-62.8,171.5-152V383.9H845.1z M523.6,830.4c-63-7.6-107.8-64.8-100.2-127.7
	c7.6-62.9,64.8-107.8,127.7-100.2c57.7,7,101.1,55.9,101.1,114C647.8,783.3,590.5,834.2,523.6,830.4L523.6,830.4z M700.7,383.9
	H323.1v-90.7c6.3-97,89.7-170.7,186.8-165.3h4.4c97-5.4,180.2,68.4,186.5,165.3V383.9L700.7,383.9z"/>
</svg>
