<?xml version="1.0" encoding="utf-8"?>
<!-- Generator: Adobe Illustrator 21.0.0, SVG Export Plug-In . SVG Version: 6.00 Build 0)  -->
<svg version="1.1" id="图层_1" xmlns="http://www.w3.org/2000/svg" xmlns:xlink="http://www.w3.org/1999/xlink" x="0px" y="0px"
	 viewBox="0 0 1024 1024" style="enable-background:new 0 0 1024 1024;" xml:space="preserve">
<style type="text/css">
	.st0{fill:#ABABAB;}
</style>
<path id="形状_19" class="st0" d="M961,116.1h-902C30.1,119.4,3.9,99,0,70.3c1.4-27.2,24.6-48.2,51.8-46.8c2.5,0.1,5,0.4,7.4,0.9
	h902c25.3-6.4,51,9,57.4,34.3c6.4,25.3-9,51-34.3,57.4C976.7,118.1,968.6,118.1,961,116.1z M982.6,407.3H390.9
	c-23.2-1.6-40.7-21.7-39.1-44.9c0-0.3,0-0.6,0.1-1c-3.6-21.4,10.8-41.7,32.2-45.3c2.2-0.4,4.5-0.6,6.8-0.5h591.8
	c25.3,4.3,42.4,28.2,38.1,53.5C1017.5,388.8,1002.2,404.1,982.6,407.3z M985.1,690.1H393.4c-23.1-1.5-40.6-21.5-39.1-44.7
	c0-0.4,0.1-0.8,0.1-1.2c-3.6-21.4,10.9-41.7,32.3-45.3c2.2-0.4,4.4-0.5,6.7-0.5h591.8c25.3,4.2,42.4,28.2,38.2,53.5
	C1020.1,671.5,1004.8,686.8,985.1,690.1L985.1,690.1L985.1,690.1z M964.7,999.5H63c-28.9,3.5-55.3-16.9-59.2-45.8
	c1.4-27.2,24.6-48.2,51.8-46.8c2.5,0.1,5,0.4,7.4,0.9h901.7c25.3-6.6,51.1,8.7,57.7,34c6.6,25.3-8.7,51.1-34,57.7
	C980.7,1001.5,972.5,1001.5,964.7,999.5L964.7,999.5L964.7,999.5z M167.8,309.9c0,0,61.5-60.2,61.5,25.7V676
	c2.6,14.3-0.3,29-7.9,41.3c-14.4-1.4-27.9-7.4-38.6-17.1L27.3,567.5C-5.9,536.7-7.8,484.9,23,451.7c1.4-1.5,2.8-2.9,4.3-4.3
	L167.8,309.9L167.8,309.9L167.8,309.9z"/>
</svg>
