<?xml version="1.0" encoding="utf-8"?>
<!-- Generator: Adobe Illustrator 21.0.0, SVG Export Plug-In . SVG Version: 6.00 Build 0)  -->
<svg version="1.1" id="图层_1" xmlns="http://www.w3.org/2000/svg" xmlns:xlink="http://www.w3.org/1999/xlink" x="0px" y="0px"
	 viewBox="0 0 1024 1024" style="enable-background:new 0 0 1024 1024;" xml:space="preserve">
<style type="text/css">
	.st0{fill:#888888;}
</style>
<path id="形状_22" class="st0" d="M569.8,852.7c-0.2,18.9,15,34.3,33.9,34.5c0.2,0,0.4,0,0.6,0h385.3
	c19.1-0.1,34.5-15.6,34.4-34.6c-0.1-18.9-15.4-34.3-34.4-34.4H604.2c-18.9-0.1-34.4,15.2-34.4,34.1
	C569.8,852.4,569.8,852.6,569.8,852.7z M859.3,707.8c12-14.6,10-36.1-4.5-48.3c-51.3-43.5-110.5-76.7-174.3-97.9
	c21.6-12.7,41.5-27.9,59.5-45.3c28.3-27.4,51-60.1,66.8-96.2c32.8-75,32.8-160.2,0-235.2c-15.8-36.1-38.5-68.8-66.8-96.2
	c-123.2-118.2-317.7-118.2-440.9,0c-28.3,27.4-51,60.1-66.8,96.2c-32.8,75-32.8,160.2,0,235.2c15.8,36.1,38.5,68.8,66.8,96.2
	c18.1,17.6,38.4,33,60.2,45.7c-7.2,2.4-14.3,4.9-21.4,7.6c-57,21.9-109.7,53.5-155.9,93.5c-46.8,40.2-86.3,88.1-116.8,141.7
	c-31.7,55.5-53.6,116-64.7,179c-1.7,9,0.3,18.2,5.6,25.7c5.1,7.6,13,12.8,22,14.5h1h5c16.7-0.2,31-12,34.3-28.4l0,0
	c35.8-222.4,226.1-387,451.3-390.4c106.8,0.1,210.1,38.2,291.4,107.4c14.6,12,36.2,10,48.4-4.5l0,0L859.3,707.8z M519.5,536
	c-129-5.2-229.4-113.9-224.2-242.9c5.2-129,114-229.3,243-224.1c125.4,5,224.4,108.1,224.4,233.5C759.8,434,651.1,538.4,519.5,536
	L519.5,536z M989.4,955H604.2c-19.1,0.1-34.5,15.6-34.4,34.6c0.1,18.9,15.4,34.3,34.4,34.4h385.3c19.1-0.2,34.4-15.8,34.2-34.8
	C1023.5,970.4,1008.3,955.2,989.4,955L989.4,955z"/>
</svg>
