<?xml version="1.0" encoding="utf-8"?>
<!-- Generator: Adobe Illustrator 21.0.0, SVG Export Plug-In . SVG Version: 6.00 Build 0)  -->
<svg version="1.1" id="图层_1" xmlns="http://www.w3.org/2000/svg" xmlns:xlink="http://www.w3.org/1999/xlink" x="0px" y="0px"
	 viewBox="0 0 1024 1024" style="enable-background:new 0 0 1024 1024;" xml:space="preserve">
<style type="text/css">
	.st0{fill:#999999;}
</style>
<path id="username" class="st0" d="M333.4,445.8c23.3,24.1,51.2,43.3,81.9,56.6c61.7,26.5,131.6,26.5,193.3,0
	c30.8-13.3,58.6-32.6,82-56.6c23.5-24.5,42.1-53.3,54.7-84.8c25.7-64.2,25.7-135.8,0-200c-12.6-31.5-31.2-60.3-54.7-84.8
	c-23.3-24.1-51.2-43.4-82-56.6c-61.8-26-131.5-26-193.3,0c-30.8,13.3-58.6,32.5-81.9,56.6c-23.5,24.5-42.1,53.3-54.7,84.8
	c-25.7,64.2-25.7,135.8,0,200C291.3,392.5,309.9,421.3,333.4,445.8L333.4,445.8z M714.4,582H309.6C187.5,586.2,92,688.5,96.1,810.5
	c4,116.2,97.2,209.5,213.5,213.5h404.8c122-4.2,217.6-106.5,213.5-228.5C923.9,679.3,830.6,586,714.4,582L714.4,582z"/>
</svg>
