<?xml version="1.0" encoding="utf-8"?>
<!-- Generator: Adobe Illustrator 21.0.0, SVG Export Plug-In . SVG Version: 6.00 Build 0)  -->
<svg version="1.1" id="图层_1" xmlns="http://www.w3.org/2000/svg" xmlns:xlink="http://www.w3.org/1999/xlink" x="0px" y="0px"
	 viewBox="0 0 1024 1024" style="enable-background:new 0 0 1024 1024;" xml:space="preserve">
<style type="text/css">
	.st0{fill:#AAAAAA;}
</style>
<g>
	<g>
		<path class="st0" d="M512.1,805.7L94.2,614c-17.8-5.1-40.1-17.8-68.4-33.9c-12.2-6.4-20-18.9-20.3-32.7
			c-0.3-13.8,7.1-26.7,19.1-33.5c12-6.8,26.8-6.5,38.5,0.8c12.5,7.1,27.5,14.6,39.2,20.2l409.8,188l390.6-179.1l34.2-17.1l26.1-13
			c12.1-6.5,26.8-5.9,38.3,1.6c11.5,7.5,18.1,20.6,17.1,34.3c-1,13.7-9.4,25.8-21.8,31.5l-26.1,13c-12.4,6.3-24.9,12.4-37.4,18.4
			v0.1L512.1,805.7z M512.1,805.7"/>
		<path class="st0" d="M512.1,1024L93.4,831.9c-13.6-4.5-34-14.4-67.6-33.5C7.7,788.1,1.4,765.1,11.7,747
			C22,728.9,45,722.6,63.1,732.9c13,7.4,28.6,15.1,40.5,20.8l408.5,187.5l390.6-179.2l34.2-17.1l26.1-13c12.1-6.5,26.8-5.9,38.3,1.6
			c11.5,7.5,18,20.6,17.1,34.3c-1,13.7-9.4,25.8-21.8,31.5l-26.1,13c-12.4,6.3-24.9,12.4-37.4,18.4v0.1L512.1,1024z M511.3,575.5
			c-22,0-41.3-7.7-59-16L56.2,382.4c-27.3-14.2-44.6-42.1-45.3-72.9c-1.4-33.2,14.1-64.2,40.3-81L450.9,18.4
			c50.8-25.3,82.5-24,124.8,0.9l395.2,207.6c27.5,15.1,43.5,46,42.4,81.3c-1.1,33.5-18,61.9-44.1,74L571.9,559.9
			C550,569.4,531.7,575.5,511.3,575.5L511.3,575.5z M514.5,76c-7,0-16.3,3-29.4,9.5L89.1,293.7c-2.1,3.9-3.1,8.4-2.9,12.8
			c0.2,4.4,1.7,7.5,3,8.2l394.5,176.4c28.8,13.4,28.9,12.4,57.8-0.2L938,313.6c1.2-2.8,0.7-17-3.1-20.5L539,85.2
			C525,77,518.6,76,514.5,76L514.5,76z M514.5,76"/>
	</g>
</g>
</svg>
