<?xml version="1.0" encoding="utf-8"?>
<!-- Generator: Adobe Illustrator 21.0.0, SVG Export Plug-In . SVG Version: 6.00 Build 0)  -->
<svg version="1.1" id="图层_1" xmlns="http://www.w3.org/2000/svg" xmlns:xlink="http://www.w3.org/1999/xlink" x="0px" y="0px"
	 viewBox="0 0 1024 1024" style="enable-background:new 0 0 1024 1024;" xml:space="preserve">
<style type="text/css">
	.st0{fill:#888888;}
</style>
<path id="形状_17" class="st0" d="M665.3,995.5c-18.2,0.2-35.7-7.3-48.3-20.5c-27.8-32.6-65.8-54.9-107.8-63.2
	c-41.4,8.2-78.9,29.8-106.7,61.6c-12.6,13.1-30.1,20.3-48.3,20.1c-8.5,0.1-16.9-1.6-24.7-5.2l-1.5-0.5l-126-70.4l-1-1.1
	c-23.3-16.3-31.7-46.9-20-72.9c6.9-16.1,10.9-33.3,11.8-50.9c-0.1-73.5-59.7-133-133.2-132.9l0,0h-5.5
	c-24.3-3.1-42.7-23.3-43.6-47.7C4.3,579.1,0.8,545.8,0,512.3c1-33.8,4.6-67.4,10.8-100.6c1-24.8,20-45.1,44.7-47.7h4.3
	c73.4,0,133-59.5,133-133c-0.6-17.6-4.6-34.8-11.8-50.9c-11.2-26.1-2.7-56.5,20.5-72.9l1.5-1l132-72.5l1.5-0.5
	c7.7-3.1,15.9-4.7,24.1-4.6c18.2-0.3,35.6,7,48.3,20c27.7,30.6,64.7,51.4,105.3,59c40.2-7.7,76.9-28,104.7-58
	C631.6,37,648.8,29.9,666.6,30c8.5-0.1,16.9,1.6,24.7,5.1l1.5,0.5L821.2,106l1,1c23.2,16.4,31.7,46.8,20.5,72.9
	c-6.9,16.1-10.9,33.3-11.8,50.9c0,73.4,59.6,133,133,133h4.6c24.7,2.6,43.7,23,44.7,47.7c14.4,66.3,14.4,135,0,201.3
	c-1,24.8-20,45.1-44.7,47.7h-4.3c-73.4,0-133,59.5-133,133c0.6,17.6,4.6,34.8,11.8,50.9c11.2,26.1,2.7,56.5-20.5,72.9l-1.5,1
	l-130.4,71.9l-1.5,0.5c-7.4,3.2-15.5,4.8-23.6,4.6l0,0L665.3,995.5z M661.7,933.9c1.3,0.8,2.8,1.2,4.3,1l121.7-67.3
	c-10.1-23.6-15.7-48.8-16.4-74.4c0-102.9,80.7-187.8,183.5-193.1c5.3-29,8.4-58.3,9.3-87.8c-1.1-29.4-4.2-58.8-9.3-87.8
	c-102.8-5.3-183.4-90.1-183.5-193.1c0.7-25.6,6.3-50.9,16.4-74.4L668.2,90.2h-0.9c-1.6-0.1-3.2,0.3-4.6,1
	c-13.7,13.4-28.4,25.7-44,36.8c-59.8,52.4-149.2,51.9-208.5-1c-15.9-11.4-30.9-24.1-44.7-38c-1.4-0.8-3-1.1-4.6-1h-0.6l-123.7,68.3
	c10.1,23.6,15.7,48.8,16.4,74.4c0,102.9-80.7,187.8-183.5,193.1c-5.3,29-8.4,58.3-9.3,87.8c1.1,29.4,4.2,58.8,9.3,87.8
	c102.8,5.3,183.4,90.1,183.5,193.1c-0.7,25.6-6.2,50.9-16.4,74.4l117.6,66.3c1.5,0.1,3-0.3,4.3-1c13.7-14.7,28.8-28,45.2-39.5
	c30.1-24.8,67.3-39.4,106.3-41.6c39.3,2.4,76.9,17.1,107.3,42.1C632.7,905.9,647.6,919.5,661.7,933.9z M509.7,689
	c-97.8,0-177.2-79.3-177.2-177.1s79.3-177.1,177.2-177.1s177.2,79.2,177.2,177l0,0C686.7,609.6,607.5,688.8,509.7,689z M509.7,394.6
	c-64.7,0-117.1,52.4-117.1,117.1S445,628.8,509.7,628.8s117.1-52.4,117.1-117.1c0-64.6-52.3-117-116.9-117.1
	C509.8,394.6,509.8,394.6,509.7,394.6L509.7,394.6z"/>
</svg>
