<?xml version="1.0" encoding="utf-8"?>
<!-- Generator: Adobe Illustrator 21.0.0, SVG Export Plug-In . SVG Version: 6.00 Build 0)  -->
<svg version="1.1" id="图层_1" xmlns="http://www.w3.org/2000/svg" xmlns:xlink="http://www.w3.org/1999/xlink" x="0px" y="0px"
	 viewBox="0 0 1024 1024" style="enable-background:new 0 0 1024 1024;" xml:space="preserve">
<style type="text/css">
	.st0{fill:#9A9A9A;}
</style>
<path class="st0" d="M807.4,1022.8H106.7c-45.7,0-82.7-37-82.7-82.7c0,0,0,0,0,0v-855C24.2,38.2,62.2,0.2,109.2,0H836
	c47,0.2,85,38.2,85.2,85.1V267c0.2,28.5-22.7,51.8-51.3,52.1c-0.1,0-0.3,0-0.4,0c-28.5,0-26.1-28.1-26.1-57.9V109.5
	c0-22.8-18.5-41.3-41.4-41.3H134c-22.8,0-41.4,18.5-41.4,41.3l0,0v804.2c0,22.8,18.5,41.3,41.4,41.3h671.3c21,0,38.1-17,38.1-38l0,0
	V780.2c0-29.8-2.5-64.9,26.1-64.9c28.6,0,51.7,23.1,51.7,51.7c0,0.1,0,0.3,0,0.4v141.7c5.2,58-37.6,109.2-95.6,114.4
	c-6,0.5-12.1,0.6-18.2,0.1V1022.8z M915.4,388.5L716.8,591.8c-5.9,6-9.8,13.6-11.2,21.9l-12.8,59.5c-1.5,7.8,3.6,15.4,11.5,17
	c2.4,0.5,4.8,0.3,7.2-0.4l60.4-16.1c6.8-2.5,12.8-6.8,17.4-12.4l199-203.3c15.8-16.1,15.8-41.8,0-57.9l-12.8-11.6
	c-15.7-16.5-41.9-17.2-58.5-1.5C916.4,387.5,915.9,388,915.4,388.5L915.4,388.5z M265.6,822.8c-4.5,0-8.9-1.1-12.8-3.3
	c-11.9-7-16.2-22-9.9-34.3c112.1-198,153.5-191.3,167.9-188.9c14.5,2.5,29,9.1,35.2,41.3c4.5,24.6,7.3,49.4,8.3,74.4v14.9l18.6-20.7
	c38.5-41.3,62-68.2,91.4-61.6c29.4,6.6,33.1,33.5,35.6,41.3c3.7,13.5,4.7,27.5,2.9,41.3l13.2-5.8c13.7-4.6,28.4,2.8,33,16.4
	c3.9,11.6-0.9,24.4-11.5,30.7c-41.4,19-63.3,28.1-82.7,13.6c-11.2-11.8-14.5-29.1-8.3-44.2c3.3-12.5,3.3-25.6,0-38
	c-13.6,13.1-26.4,26.9-38.5,41.3l-20.7,22.7c-11.2,12-33.9,36.8-59.6,27.7s-26.9-37.6-29.4-76.5c0.5-20.4-0.2-40.8-2.1-61.2
	c-42.7,47-79.2,99.2-108.8,155.4c-4.6,8.3-13.3,13.3-22.7,13.2H265.6z M196.5,191.8h517.9v52.1H196.5V191.8z M196.5,295.5h517.9
	v52.1H196.5V295.5z M196.5,399.2h413.6v51.7H196.5L196.5,399.2z"/>
</svg>
