<?xml version="1.0" encoding="utf-8"?>
<!-- Generator: Adobe Illustrator 21.0.0, SVG Export Plug-In . SVG Version: 6.00 Build 0)  -->
<svg version="1.1" id="图层_1" xmlns="http://www.w3.org/2000/svg" xmlns:xlink="http://www.w3.org/1999/xlink" x="0px" y="0px"
	 viewBox="0 0 1024 1024" style="enable-background:new 0 0 1024 1024;" xml:space="preserve">
<style type="text/css">
	.st0{fill:#9A9A9A;}
</style>
<path class="st0" d="M857.1,446.1l-567.8-1c-0.3-76.5-11.8-201.3,44.5-267.1c38.4-45,77.1-90,178.3-89
	c96.7-2.5,184.5,79.6,222.8,178.1c11.1,28.4,20.9,43.7,44.5,44.5c59.2,1.8,55.7-60.6,44.5-89C768.8,80.4,665.2,0,512.1,0
	c-104,0-161.4,21.4-222.8,89c-93.9,103.5-89.3,270.8-89.1,356.3l-33.2,1c-31,0-56,24.8-56,55.3v467.2c0,30.6,25,55.3,56,55.3H857
	c30.9,0,56-24.8,56-55.3V501.4C913.1,470.9,888,446.1,857.1,446.1 M825.3,890.1c0,12.4-4.3,22.9-13.1,31.5
	c-8.8,8.8-19.3,13.1-31.5,13.1H245.1c-12.4,0-22.9-4.3-31.5-13.1c-8.8-8.8-13.1-19.3-13.1-31.5V577.9c0-24.5,20-44.5,44.7-44.5
	h535.7c24.6,0,44.7,20,44.7,44.5v312.3H825.3z"/>
</svg>
