<?xml version="1.0" encoding="utf-8"?>
<!-- Generator: Adobe Illustrator 21.0.0, SVG Export Plug-In . SVG Version: 6.00 Build 0)  -->
<svg version="1.1" id="图层_1" xmlns="http://www.w3.org/2000/svg" xmlns:xlink="http://www.w3.org/1999/xlink" x="0px" y="0px"
	 viewBox="0 0 1024 1024" style="enable-background:new 0 0 1024 1024;" xml:space="preserve">
<style type="text/css">
	.st0{fill:#FFFFFF;}
</style>
<path id="退出按钮" class="st0" d="M978.9,511.9c0,16.6-7,32.5-19.1,43.9l0,0L765.3,733l0,0c-24.4,21.5-61.6,19.1-83-5.3
	c-21.2-24.2-19.1-60.9,4.7-82.5l0,0l81.5-74.2H414.5c-32.6,0-59-26.5-59-59.1c0-32.6,26.4-59,59-59h353.9l-81.5-74.2l0,0
	c-24.4-21.5-26.8-58.6-5.3-83c21.5-24.4,58.6-26.8,83-5.3c0.2,0.2,0.4,0.4,0.6,0.6l0,0L959.8,468l0,0
	C972,479.3,978.9,495.2,978.9,511.9z M395.4,118H161.7v787.8h233.7c32.6,0,59,26.5,59,59.1c0,32.6-26.4,59-59,59h-292
	c-32.3-0.1-58.4-26.4-58.3-58.7c0-0.1,0-0.3,0-0.4v-906C44.8,26.6,70.8,0.2,103.1,0c0.1,0,0.2,0,0.3,0h292
	c32.6,1.3,58,28.7,56.7,61.3C450.9,92.1,426.2,116.8,395.4,118z"/>
</svg>
