<?xml version="1.0" encoding="utf-8"?>
<!-- Generator: Adobe Illustrator 21.0.0, SVG Export Plug-In . SVG Version: 6.00 Build 0)  -->
<svg version="1.1" id="图层_1" xmlns="http://www.w3.org/2000/svg" xmlns:xlink="http://www.w3.org/1999/xlink" x="0px" y="0px"
	 viewBox="0 0 1024 1024" style="enable-background:new 0 0 1024 1024;" xml:space="preserve">
<style type="text/css">
	.st0{fill:#9A9A9A;}
</style>
<path class="st0" d="M664.7,483.1c68.4-48,113.4-127.6,113.4-217.5C778.1,119.2,658.9,0,512.3,0C365.9,0,246.6,119.1,246.6,265.7
	c0,89.9,44.8,169.4,113.4,217.5c-63.3,22.4-121.4,58.8-170.4,107.7C103.4,677,56,791.6,56,913.4c0,28.3,0,50,0.2,73.7
	c0.2,20.4,16.7,36.9,37.1,36.9c20.7-0.2,37.1-16.8,37.1-37.2c-0.2-23.5-0.2-45.1-0.2-73.2c0-210.7,171.5-382.3,382.3-382.3
	C588,523.5,610.5,516.5,664.7,483.1L664.7,483.1z M320.8,265.7c0-105.6,85.9-191.5,191.6-191.5c105.7,0,191.6,85.9,191.6,191.5
	S618,457.2,512.3,457.2C406.7,457.2,320.8,371.1,320.8,265.7L320.8,265.7z"/>
<path class="st0" d="M964,682l4,10l-48.4,58c-8.1,10-8.1,26,0,36l48.4,56l-4,10c-10.1,28-24.2,56-44.3,78l-8.1,8L837,926
	c-12.1-2-26.2,6-30.2,18l-26.2,72l-10.1,2c-38.3,8-76.6,8-114.9,0l-12.1-2l-24.2-70c-4-12-18.1-20-30.2-18l-76.6,12l-8.1-8
	c-10.1-10-18.1-22-24.2-34c-8.1-14-16.1-30-20.2-46l-4-10l50.4-56c8.1-10,8.1-26,0-34L458,694l4-10c10.1-30,26.2-56,46.4-80l8.1-8
	l72.6,12c12.1,2,26.2-6,32.3-18l26.2-70l10.1-2c36.3-8,74.6-8,112.9,0l12.1,2l24.2,68c4,12,18.1,22,32.3,20l74.6-10l8.1,8
	c10.1,12,18.1,22,24.2,36C951.9,652,957.9,668,964,682L964,682z M882.6,681.2c-3.5-6.9-7.1-12-12.4-18.9l-46,5.2
	c-28.3,3.4-56.6-13.7-65.4-39.5l-14.1-39.5c-21.2-3.4-42.4-3.4-63.7,0l-15.9,41.2c-8.8,25.8-38.9,43-67.2,37.8l-44.2-6.9
	c-10.6,12-17.7,27.5-24.8,41.2l30.1,34.4c17.7,20.6,17.7,53.3,0,73.9L529,844.4c3.5,8.6,7.1,15.5,12.4,24.1
	c3.5,6.9,7.1,12,12.4,17.2l47.7-6.9c28.3-3.4,56.6,13.7,65.4,39.5l14.1,41.2c21.2,3.4,44.2,3.4,65.4,0l15.9-43
	c8.8-25.8,38.9-43,65.4-37.8l44.2,6.9c8.8-12,17.7-25.8,23-41.2l-28.3-32.6c-17.7-20.6-19.5-53.3-1.8-73.9l30.1-34.4
	C891.5,696.7,887.9,689.8,882.6,681.2L882.6,681.2z M712,840.4c-40.6,0-73-32.4-73-72.9c0-40.5,32.4-72.9,73-72.9s73,32.3,73,72.8
	C785,807.9,750.9,840.4,712,840.4L712,840.4z"/>
</svg>
