<?xml version="1.0" encoding="utf-8"?>
<!-- Generator: Adobe Illustrator 21.0.0, SVG Export Plug-In . SVG Version: 6.00 Build 0)  -->
<svg version="1.1" id="图层_1" xmlns="http://www.w3.org/2000/svg" xmlns:xlink="http://www.w3.org/1999/xlink" x="0px" y="0px"
	 viewBox="0 0 1024 1024" style="enable-background:new 0 0 1024 1024;" xml:space="preserve">
<style type="text/css">
	.st0{fill:#9A9A9A;}
</style>
<path class="st0" d="M766.3,920.5v-74.2h147.6c19.6-1.8,35.1-17.4,37-37.1V215.3c0.7-10-2.9-19.9-10-27
	c-7.1-7.1-16.9-10.8-26.9-10.1h-270V104H958c36.2-0.2,65.7,29,66,65.3v686c-0.4,36.3-29.9,65.4-66,65.2H766.3z M653.2,919.5
	c1.7-79.3-28.9-155.8-84.7-211.9c-55.8-56.1-125.1-85.8-204.1-84c-79.5-3.8-152,23.3-208.3,79.8c-56.3,56.5-86.2,134.2-82.5,214.1
	h-37L0,918v-2.5c0-159.1,87.7-309.3,258.5-331.9c-90.8-35.9-149.8-124.7-147.9-222.7c-0.8-69.3,26.2-135.9,74.9-184.9
	c48.8-49,110.2-73.2,179.2-72.4c141.6,0,251.5,88.6,251.5,259.3c1.9,98-57.1,185.8-147.9,221.7c159.2,0,259,173.9,259.1,332.9v2.5
	L653.2,919.5L653.2,919.5z M364.4,178.2c-98.8,4.6-173.4,80.1-179.9,179.2c0,87.1,87.5,191.9,179.9,191.9
	c98.3-8.7,169.2-87.9,177.9-186.6C542,260.5,466.4,178.6,364.4,178.2L364.4,178.2z M711.5,697.8v-74.2h165.4v74.2H711.5z
	 M642.8,512.2V438h234.1v74.2H642.8z M642.8,326.7v-74.2h234.1v74.2H642.8z"/>
</svg>
